<svg id="visual" viewBox="0 0 1920 1080" width="1920" height="1080" xmlns="http://www.w3.org/2000/svg" xmlns:xlink="http://www.w3.org/1999/xlink" version="1.1"><path d="M1239 1080L1241.2 1060C1243.3 1040 1247.7 1000 1260.3 960C1273 920 1294 880 1306.3 840C1318.7 800 1322.3 760 1329.8 720C1337.3 680 1348.7 640 1354.3 600C1360 560 1360 520 1358.7 480C1357.3 440 1354.7 400 1342.5 360C1330.3 320 1308.7 280 1306.3 240C1304 200 1321 160 1313.5 120C1306 80 1274 40 1258 20L1242 0L1920 0L1920 20C1920 40 1920 80 1920 120C1920 160 1920 200 1920 240C1920 280 1920 320 1920 360C1920 400 1920 440 1920 480C1920 520 1920 560 1920 600C1920 640 1920 680 1920 720C1920 760 1920 800 1920 840C1920 880 1920 920 1920 960C1920 1000 1920 1040 1920 1060L1920 1080Z" fill="#ffce2b"></path><path d="M1410 1080L1407.3 1060C1404.7 1040 1399.3 1000 1400.8 960C1402.3 920 1410.7 880 1402.3 840C1394 800 1369 760 1360.3 720C1351.7 680 1359.3 640 1365 600C1370.7 560 1374.3 520 1382.3 480C1390.3 440 1402.7 400 1414.5 360C1426.3 320 1437.7 280 1430.2 240C1422.7 200 1396.3 160 1391.8 120C1387.3 80 1404.7 40 1413.3 20L1422 0L1920 0L1920 20C1920 40 1920 80 1920 120C1920 160 1920 200 1920 240C1920 280 1920 320 1920 360C1920 400 1920 440 1920 480C1920 520 1920 560 1920 600C1920 640 1920 680 1920 720C1920 760 1920 800 1920 840C1920 880 1920 920 1920 960C1920 1000 1920 1040 1920 1060L1920 1080Z" fill="#ffb21e"></path><path d="M1506 1080L1503 1060C1500 1040 1494 1000 1492.7 960C1491.3 920 1494.7 880 1498.2 840C1501.7 800 1505.3 760 1498 720C1490.7 680 1472.3 640 1477.3 600C1482.3 560 1510.7 520 1519.5 480C1528.3 440 1517.7 400 1512 360C1506.3 320 1505.7 280 1499.7 240C1493.7 200 1482.3 160 1483.8 120C1485.3 80 1499.7 40 1506.8 20L1514 0L1920 0L1920 20C1920 40 1920 80 1920 120C1920 160 1920 200 1920 240C1920 280 1920 320 1920 360C1920 400 1920 440 1920 480C1920 520 1920 560 1920 600C1920 640 1920 680 1920 720C1920 760 1920 800 1920 840C1920 880 1920 920 1920 960C1920 1000 1920 1040 1920 1060L1920 1080Z" fill="#ff951d"></path><path d="M1575 1080L1574.7 1060C1574.3 1040 1573.7 1000 1583.2 960C1592.7 920 1612.3 880 1610 840C1607.7 800 1583.3 760 1576.3 720C1569.3 680 1579.7 640 1586.7 600C1593.7 560 1597.3 520 1600.3 480C1603.3 440 1605.7 400 1609.3 360C1613 320 1618 280 1617.8 240C1617.7 200 1612.3 160 1608.3 120C1604.3 80 1601.7 40 1600.3 20L1599 0L1920 0L1920 20C1920 40 1920 80 1920 120C1920 160 1920 200 1920 240C1920 280 1920 320 1920 360C1920 400 1920 440 1920 480C1920 520 1920 560 1920 600C1920 640 1920 680 1920 720C1920 760 1920 800 1920 840C1920 880 1920 920 1920 960C1920 1000 1920 1040 1920 1060L1920 1080Z" fill="#fc7724"></path><path d="M1694 1080L1690.2 1060C1686.3 1040 1678.7 1000 1676.7 960C1674.7 920 1678.3 880 1676.3 840C1674.3 800 1666.7 760 1668.2 720C1669.7 680 1680.3 640 1690.7 600C1701 560 1711 520 1709.7 480C1708.3 440 1695.7 400 1691.2 360C1686.7 320 1690.3 280 1686 240C1681.7 200 1669.3 160 1668.5 120C1667.7 80 1678.3 40 1683.7 20L1689 0L1920 0L1920 20C1920 40 1920 80 1920 120C1920 160 1920 200 1920 240C1920 280 1920 320 1920 360C1920 400 1920 440 1920 480C1920 520 1920 560 1920 600C1920 640 1920 680 1920 720C1920 760 1920 800 1920 840C1920 880 1920 920 1920 960C1920 1000 1920 1040 1920 1060L1920 1080Z" fill="#f4582d"></path><path d="M1760 1080L1760.7 1060C1761.3 1040 1762.7 1000 1765 960C1767.3 920 1770.7 880 1772 840C1773.3 800 1772.7 760 1770.2 720C1767.7 680 1763.3 640 1763 600C1762.7 560 1766.3 520 1766.8 480C1767.3 440 1764.7 400 1768.5 360C1772.3 320 1782.7 280 1786.3 240C1790 200 1787 160 1781.8 120C1776.7 80 1769.3 40 1765.7 20L1762 0L1920 0L1920 20C1920 40 1920 80 1920 120C1920 160 1920 200 1920 240C1920 280 1920 320 1920 360C1920 400 1920 440 1920 480C1920 520 1920 560 1920 600C1920 640 1920 680 1920 720C1920 760 1920 800 1920 840C1920 880 1920 920 1920 960C1920 1000 1920 1040 1920 1060L1920 1080Z" fill="#e93437"></path></svg>